<svg xmlns="http://www.w3.org/2000/svg" width="1100" height="730" viewBox="0 0 1100 730">
<rect width="100%" height="100%" fill="#f7f4ed"/>
<text x="85" y="32" font-family="Arial" font-size="22" font-weight="bold" fill="#17202a">Convergencia do Metodo de Gradiente por chute inicial</text>
<text x="85" y="52" font-family="Arial" font-size="13" fill="#52616b">G(x,y,z) (escala log10) por iteracao - residuos_iteracoes.txt</text>
<line x1="85.0" y1="550.0" x2="1070.0" y2="550.0" stroke="#d8d2c4" stroke-width="1"/>
<text x="77" y="554.0" text-anchor="end" font-family="Arial" font-size="12" fill="#52616b">1e-17</text>
<line x1="85.0" y1="526.0" x2="1070.0" y2="526.0" stroke="#d8d2c4" stroke-width="1"/>
<text x="77" y="530.0" text-anchor="end" font-family="Arial" font-size="12" fill="#52616b">1e-16</text>
<line x1="85.0" y1="502.0" x2="1070.0" y2="502.0" stroke="#d8d2c4" stroke-width="1"/>
<text x="77" y="506.0" text-anchor="end" font-family="Arial" font-size="12" fill="#52616b">1e-15</text>
<line x1="85.0" y1="478.0" x2="1070.0" y2="478.0" stroke="#d8d2c4" stroke-width="1"/>
<text x="77" y="482.0" text-anchor="end" font-family="Arial" font-size="12" fill="#52616b">1e-14</text>
<line x1="85.0" y1="454.0" x2="1070.0" y2="454.0" stroke="#d8d2c4" stroke-width="1"/>
<text x="77" y="458.0" text-anchor="end" font-family="Arial" font-size="12" fill="#52616b">1e-13</text>
<line x1="85.0" y1="430.0" x2="1070.0" y2="430.0" stroke="#d8d2c4" stroke-width="1"/>
<text x="77" y="434.0" text-anchor="end" font-family="Arial" font-size="12" fill="#52616b">1e-12</text>
<line x1="85.0" y1="406.0" x2="1070.0" y2="406.0" stroke="#d8d2c4" stroke-width="1"/>
<text x="77" y="410.0" text-anchor="end" font-family="Arial" font-size="12" fill="#52616b">1e-11</text>
<line x1="85.0" y1="382.0" x2="1070.0" y2="382.0" stroke="#d8d2c4" stroke-width="1"/>
<text x="77" y="386.0" text-anchor="end" font-family="Arial" font-size="12" fill="#52616b">1e-10</text>
<line x1="85.0" y1="358.0" x2="1070.0" y2="358.0" stroke="#d8d2c4" stroke-width="1"/>
<text x="77" y="362.0" text-anchor="end" font-family="Arial" font-size="12" fill="#52616b">1e-9</text>
<line x1="85.0" y1="334.0" x2="1070.0" y2="334.0" stroke="#d8d2c4" stroke-width="1"/>
<text x="77" y="338.0" text-anchor="end" font-family="Arial" font-size="12" fill="#52616b">1e-8</text>
<line x1="85.0" y1="310.0" x2="1070.0" y2="310.0" stroke="#d8d2c4" stroke-width="1"/>
<text x="77" y="314.0" text-anchor="end" font-family="Arial" font-size="12" fill="#52616b">1e-7</text>
<line x1="85.0" y1="286.0" x2="1070.0" y2="286.0" stroke="#d8d2c4" stroke-width="1"/>
<text x="77" y="290.0" text-anchor="end" font-family="Arial" font-size="12" fill="#52616b">1e-6</text>
<line x1="85.0" y1="262.0" x2="1070.0" y2="262.0" stroke="#d8d2c4" stroke-width="1"/>
<text x="77" y="266.0" text-anchor="end" font-family="Arial" font-size="12" fill="#52616b">1e-5</text>
<line x1="85.0" y1="238.0" x2="1070.0" y2="238.0" stroke="#d8d2c4" stroke-width="1"/>
<text x="77" y="242.0" text-anchor="end" font-family="Arial" font-size="12" fill="#52616b">1e-4</text>
<line x1="85.0" y1="214.0" x2="1070.0" y2="214.0" stroke="#d8d2c4" stroke-width="1"/>
<text x="77" y="218.0" text-anchor="end" font-family="Arial" font-size="12" fill="#52616b">1e-3</text>
<line x1="85.0" y1="190.0" x2="1070.0" y2="190.0" stroke="#d8d2c4" stroke-width="1"/>
<text x="77" y="194.0" text-anchor="end" font-family="Arial" font-size="12" fill="#52616b">1e-2</text>
<line x1="85.0" y1="166.0" x2="1070.0" y2="166.0" stroke="#d8d2c4" stroke-width="1"/>
<text x="77" y="170.0" text-anchor="end" font-family="Arial" font-size="12" fill="#52616b">1e-1</text>
<line x1="85.0" y1="142.0" x2="1070.0" y2="142.0" stroke="#d8d2c4" stroke-width="1"/>
<text x="77" y="146.0" text-anchor="end" font-family="Arial" font-size="12" fill="#52616b">1e0</text>
<line x1="85.0" y1="118.0" x2="1070.0" y2="118.0" stroke="#d8d2c4" stroke-width="1"/>
<text x="77" y="122.0" text-anchor="end" font-family="Arial" font-size="12" fill="#52616b">1e1</text>
<line x1="85.0" y1="94.0" x2="1070.0" y2="94.0" stroke="#d8d2c4" stroke-width="1"/>
<text x="77" y="98.0" text-anchor="end" font-family="Arial" font-size="12" fill="#52616b">1e2</text>
<line x1="85.0" y1="70.0" x2="1070.0" y2="70.0" stroke="#d8d2c4" stroke-width="1"/>
<text x="77" y="74.0" text-anchor="end" font-family="Arial" font-size="12" fill="#52616b">1e3</text>
<line x1="85" y1="550" x2="1070" y2="550" stroke="#17202a" stroke-width="2"/>
<line x1="85" y1="70" x2="85" y2="550" stroke="#17202a" stroke-width="2"/>
<polyline points="88.2,133.8 91.3,135.7 94.5,152.0 97.6,193.2 100.8,198.5 103.9,201.5 107.1,208.8 110.3,211.7 113.4,213.2 116.6,218.4 119.7,220.4 122.9,228.2 126.0,230.8 129.2,231.6 132.4,237.6 135.5,240.5 138.7,242.0 141.8,246.9 145.0,248.6 148.1,256.4 151.3,258.8 154.5,259.2 157.6,265.7 160.8,268.4 163.9,269.5 167.1,274.9 170.2,275.4 173.4,284.3 176.6,286.3 179.7,290.3 182.9,293.4 186.0,299.9 189.2,302.6 192.3,303.6 195.5,309.1 198.7,309.3 201.8,318.4 205.0,320.4 208.1,324.5 211.3,327.3 214.4,334.1 217.6,336.7 220.8,337.5 223.9,343.3 227.1,346.1 230.2,347.6 233.4,352.4 236.5,353.8 239.7,361.9 242.9,364.1 246.0,364.3 249.2,371.1 252.3,373.7 255.5,374.6 258.6,380.3 261.8,383.2 265.0,384.7 268.1,389.5 271.3,390.9 274.4,398.9 277.6,401.2 280.7,401.4 283.9,408.2 287.1,410.8 290.2,411.7 293.4,417.4 296.5,420.3 299.7,421.7 302.8,426.6 306.0,427.9 309.2,436.0 312.3,438.3 315.5,438.5 318.6,445.2 321.8,447.9 324.9,448.7 328.1,454.4 331.3,457.3 334.4,458.8 337.6,463.6 340.7,465.0 343.9,473.1 347.0,475.3 350.2,475.5 353.3,482.3 356.5,484.9 359.7,485.8 362.8,491.5 366.0,494.4 369.1,495.9 372.3,500.7 375.4,502.1 378.6,510.1 381.8,512.4 384.9,512.6 388.1,519.4 391.2,522.0 394.4,522.9 397.5,528.6" fill="none" stroke="#d1495b" stroke-width="2"/>
<polyline points="88.2,115.7 91.3,131.1 94.5,137.1 97.6,140.1 100.8,162.2 103.9,166.5 107.1,169.8 110.3,171.7 113.4,178.8 116.6,182.9 119.7,190.1 122.9,191.5 126.0,200.5 129.2,203.3 132.4,204.3 135.5,210.4 138.7,211.7 141.8,220.3 145.0,222.8 148.1,223.5 151.3,229.8 154.5,232.7 157.6,234.1 160.8,239.1 163.9,240.6 167.1,248.7 170.2,251.1 173.4,251.4 176.6,258.0 179.7,260.7 182.9,261.8 186.0,267.2 189.2,267.6 192.3,276.6 195.5,278.7 198.7,282.7 201.8,285.7 205.0,292.3 208.1,294.9 211.3,295.9 214.4,301.5 217.6,301.6 220.8,310.8 223.9,312.7 227.1,316.9 230.2,319.6 233.4,326.4 236.5,329.0 239.7,329.9 242.9,335.6 246.0,338.5 249.2,339.9 252.3,344.8 255.5,346.1 258.6,354.2 261.8,356.5 265.0,356.7 268.1,363.5 271.3,366.1 274.4,367.0 277.6,372.7 280.7,375.5 283.9,377.0 287.1,381.9 290.2,383.2 293.4,391.3 296.5,393.6 299.7,393.7 302.8,400.5 306.0,403.1 309.2,404.0 312.3,409.7 315.5,412.6 318.6,414.1 321.8,418.9 324.9,420.3 328.1,428.3 331.3,430.6 334.4,430.8 337.6,437.6 340.7,440.2 343.9,441.1 347.0,446.8 350.2,449.7 353.3,451.1 356.5,456.0 359.7,457.3 362.8,465.4 366.0,467.7 369.1,467.9 372.3,474.7 375.4,477.3 378.6,478.1 381.8,483.9 384.9,486.7 388.1,488.2 391.2,493.0 394.4,494.4 397.5,502.5 400.7,504.7 403.9,504.9 407.0,511.7 410.2,514.3 413.3,515.2 416.5,520.9 419.6,523.8 422.8,525.3 426.0,530.1" fill="none" stroke="#00798c" stroke-width="2"/>
<polyline points="88.2,126.1 91.3,133.2 94.5,144.0 97.6,144.9 100.8,149.8 103.9,150.5 107.1,150.6 110.3,151.2 113.4,151.4 116.6,151.8 119.7,152.2 122.9,152.2 126.0,153.0 129.2,153.3 132.4,154.0 135.5,154.3 138.7,154.9 141.8,155.4 145.0,156.0 148.1,156.6 151.3,157.2 154.5,157.2 157.6,158.9 160.8,159.7 163.9,160.3 167.1,161.2 170.2,161.6 173.4,162.7 176.6,162.9 179.7,164.2 182.9,165.1 186.0,165.8 189.2,166.8 192.3,167.5 195.5,168.6 198.7,168.9 201.8,170.5 205.0,171.5 208.1,172.2 211.3,173.5 214.4,173.7 217.6,175.4 220.8,176.6 223.9,177.2 227.1,178.7 230.2,179.7 233.4,180.6 236.5,182.0 239.7,182.0 242.9,184.0 246.0,185.4 249.2,185.6 252.3,187.6 255.5,188.9 258.6,189.3 261.8,191.1 265.0,192.4 268.1,192.9 271.3,194.7 274.4,196.0 277.6,196.5 280.7,198.4 283.9,199.7 287.1,200.2 290.2,202.1 293.4,203.4 296.5,203.8 299.7,205.8 302.8,207.2 306.0,207.5 309.2,209.6 312.3,211.0 315.5,211.1 318.6,213.3 321.8,214.8 324.9,216.0 328.1,217.1 331.3,218.7 334.4,219.9 337.6,220.8 340.7,222.5 343.9,223.8 347.0,224.6 350.2,226.4 353.3,227.7 356.5,228.3 359.7,230.2 362.8,231.6 366.0,232.0 369.1,234.0 372.3,235.5 375.4,235.6 378.6,237.9 381.8,239.5 384.9,240.7 388.1,241.7 391.2,243.4 394.4,244.7 397.5,245.4 400.7,247.3 403.9,248.6 407.0,249.2 410.2,251.1 413.3,252.6 416.5,252.9 419.6,255.0 422.8,256.5 426.0,257.8 429.1,258.8 432.3,260.5 435.4,261.8 438.6,262.6 441.7,264.4 444.9,265.7 448.1,266.4 451.2,268.3 454.4,269.7 457.5,270.1 460.7,272.1 463.8,273.7 467.0,273.7 470.2,276.0 473.3,277.6 476.5,278.9 479.6,279.8 482.8,281.5 485.9,282.9 489.1,283.6 492.3,285.4 495.4,286.8 498.6,287.3 501.7,289.3 504.9,290.8 508.0,290.9 511.2,293.2 514.4,294.8 517.5,296.0 520.7,297.0 523.8,298.7 527.0,300.0 530.1,300.8 533.3,302.6 536.5,304.0 539.6,304.5 542.8,306.5 545.9,308.0 549.1,308.2 552.2,310.4 555.4,311.9 558.6,313.2 561.7,314.2 564.9,315.9 568.0,317.2 571.2,318.0 574.3,319.8 577.5,321.2 580.7,321.7 583.8,323.7 587.0,325.2 590.1,325.4 593.3,327.6 596.4,329.1 599.6,330.4 602.8,331.4 605.9,333.1 609.1,334.4 612.2,335.2 615.4,337.0 618.5,338.4 621.7,338.9 624.9,340.9 628.0,342.3 631.2,342.6 634.3,344.7 637.5,346.3 640.6,347.5 643.8,348.6 647.0,350.2 650.1,351.5 653.3,352.4 656.4,354.2 659.6,355.5 662.7,356.1 665.9,358.1 669.1,359.5 672.2,359.8 675.4,361.9 678.5,363.5 681.7,364.7 684.8,365.8 688.0,367.4 691.2,368.7 694.3,369.6 697.5,371.3 700.6,372.7 703.8,373.3 706.9,375.3 710.1,376.7 713.3,377.0 716.4,379.1 719.6,380.7 722.7,380.7 725.9,383.0 729.0,384.6 732.2,385.9 735.4,386.8 738.5,388.5 741.7,389.9 744.8,390.5 748.0,392.4 751.1,393.9 754.3,394.2 757.5,396.3 760.6,397.8 763.8,397.9 766.9,400.2 770.1,401.8 773.2,403.1 776.4,404.0 779.6,405.7 782.7,407.1 785.9,407.7 789.0,409.6 792.2,411.0 795.3,411.5 798.5,413.5 801.7,415.0 804.8,415.1 808.0,417.4 811.1,419.0 814.3,420.2 817.4,421.2 820.6,422.9 823.8,424.2 826.9,425.0 830.1,426.8 833.2,428.2 836.4,428.7 839.5,430.7 842.7,432.2 845.8,432.3 849.0,434.6 852.2,436.1 855.3,437.4 858.5,438.4 861.6,440.1 864.8,441.4 867.9,442.2 871.1,444.0 874.3,445.4 877.4,445.9 880.6,447.9 883.7,449.4 886.9,449.6 890.0,451.8 893.2,453.3 896.4,454.6 899.5,455.6 902.7,457.3 905.8,458.6 909.0,459.4 912.1,461.2 915.3,462.6 918.5,463.1 921.6,465.1 924.8,466.5 927.9,466.8 931.1,468.9 934.2,470.5 937.4,471.8 940.6,472.8 943.7,474.4 946.9,475.8 950.0,476.6 953.2,478.4 956.3,479.7 959.5,480.3 962.7,482.3 965.8,483.7 969.0,484.0 972.1,486.1 975.3,487.7 978.4,488.9 981.6,490.0 984.8,491.6 987.9,492.9 991.1,493.8 994.2,495.6 997.4,496.9 1000.5,497.5 1003.7,499.5 1006.9,500.9 1010.0,501.2 1013.2,503.3 1016.3,504.9 1019.5,504.9 1022.6,507.2 1025.8,508.8 1029.0,510.1 1032.1,511.0 1035.3,512.7 1038.4,514.1 1041.6,514.7 1044.7,516.6 1047.9,518.1 1051.1,518.4 1054.2,520.5 1057.4,522.0 1060.5,522.1 1063.7,524.4 1066.8,526.0 1070.0,527.3" fill="none" stroke="#edae49" stroke-width="2"/>
<polyline points="88.2,93.6 91.3,114.4 94.5,125.2 97.6,146.7 100.8,151.1 103.9,151.6 107.1,151.9 110.3,152.3 113.4,152.5 116.6,153.5 119.7,153.7 122.9,154.5 126.0,154.8 129.2,155.6 132.4,155.9 135.5,156.7 138.7,157.2 141.8,157.9 145.0,158.4 148.1,159.2 151.3,159.8 154.5,160.6 157.6,161.2 160.8,162.1 163.9,162.6 167.1,163.7 170.2,164.0 173.4,165.4 176.6,166.2 179.7,167.0 182.9,168.0 186.0,168.6 189.2,169.8 192.3,169.9 195.5,171.6 198.7,172.8 201.8,173.3 205.0,174.8 208.1,175.8 211.3,176.7 214.4,177.9 217.6,178.2 220.8,180.0 223.9,181.2 227.1,181.7 230.2,183.4 233.4,184.6 236.5,185.3 239.7,186.8 242.9,188.0 246.0,188.8 249.2,190.4 252.3,191.5 255.5,192.4 258.6,194.0 261.8,195.1 265.0,196.1 268.1,197.6 271.3,198.8 274.4,199.7 277.6,201.3 280.7,202.5 283.9,203.4 287.1,205.0 290.2,206.3 293.4,207.1 296.5,208.8 299.7,210.1 302.8,210.8 306.0,212.6 309.2,213.9 312.3,214.5 315.5,216.4 318.6,217.8 321.8,218.2 324.9,220.2 328.1,221.6 331.3,221.9 334.4,224.0 337.6,225.5 340.7,225.5 343.9,227.8 347.0,229.4 350.2,230.7 353.3,231.6 356.5,233.3 359.7,234.6 362.8,235.4 366.0,237.2 369.1,238.5 372.3,239.1 375.4,241.0 378.6,242.5 381.8,242.8 384.9,244.9 388.1,246.4 391.2,247.7 394.4,248.7 397.5,250.3 400.7,251.6 403.9,252.5 407.0,254.3 410.2,255.6 413.3,256.3 416.5,258.1 419.6,259.6 422.8,260.0 426.0,262.0 429.1,263.5 432.3,263.6 435.4,265.9 438.6,267.5 441.7,268.7 444.9,269.7 448.1,271.4 451.2,272.7 454.4,273.5 457.5,275.3 460.7,276.7 463.8,277.2 467.0,279.2 470.2,280.7 473.3,280.8 476.5,283.0 479.6,284.6 482.8,285.9 485.9,286.9 489.1,288.5 492.3,289.9 495.4,290.6 498.6,292.5 501.7,293.8 504.9,294.4 508.0,296.4 511.2,297.8 514.4,298.1 517.5,300.2 520.7,301.8 523.8,303.0 527.0,304.1 530.1,305.7 533.3,307.0 536.5,307.8 539.6,309.6 542.8,311.0 545.9,311.6 549.1,313.5 552.2,315.0 555.4,315.3 558.6,317.4 561.7,319.0 564.9,320.2 568.0,321.3 571.2,322.9 574.3,324.2 577.5,325.1 580.7,326.8 583.8,328.2 587.0,328.8 590.1,330.7 593.3,332.2 596.4,332.5 599.6,334.6 602.8,336.1 605.9,336.1 609.1,338.4 612.2,340.1 615.4,341.4 618.5,342.3 621.7,344.0 624.9,345.4 628.0,346.0 631.2,347.9 634.3,349.3 637.5,349.7 640.6,351.8 643.8,353.3 647.0,353.4 650.1,355.6 653.3,357.3 656.4,358.5 659.6,359.5 662.7,361.2 665.9,362.5 669.1,363.2 672.2,365.1 675.4,366.5 678.5,366.9 681.7,369.0 684.8,370.5 688.0,370.6 691.2,372.8 694.3,374.4 697.5,375.7 700.6,376.7 703.8,378.4 706.9,379.7 710.1,380.4 713.3,382.3 716.4,383.7 719.6,384.1 722.7,386.2 725.9,387.7 729.0,387.8 732.2,390.0 735.4,391.6 738.5,392.9 741.7,393.9 744.8,395.6 748.0,396.9 751.1,397.6 754.3,399.5 757.5,400.9 760.6,401.4 763.8,403.4 766.9,404.8 770.1,405.0 773.2,407.2 776.4,408.8 779.6,410.1 782.7,411.1 785.9,412.7 789.0,414.1 792.2,414.8 795.3,416.7 798.5,418.0 801.7,418.6 804.8,420.6 808.0,422.0 811.1,422.3 814.3,424.4 817.4,426.0 820.6,427.2 823.8,428.3 826.9,429.9 830.1,431.2 833.2,432.0 836.4,433.8 839.5,435.2 842.7,435.8 845.8,437.7 849.0,439.2 852.2,439.5 855.3,441.6 858.5,443.2 861.6,444.4 864.8,445.4 867.9,447.1 871.1,448.4 874.3,449.2 877.4,451.0 880.6,452.4 883.7,453.0 886.9,454.9 890.0,456.4 893.2,456.7 896.4,458.8 899.5,460.3 902.7,461.6 905.8,462.6 909.0,464.3 912.1,465.6 915.3,466.4 918.5,468.2 921.6,469.6 924.8,470.2 927.9,472.1 931.1,473.5 934.2,473.9 937.4,476.0 940.6,477.5 943.7,477.6 946.9,479.8 950.0,481.5 953.2,482.7 956.3,483.7 959.5,485.4 962.7,486.7 965.8,487.4 969.0,489.3 972.1,490.7 975.3,491.1 978.4,493.2 981.6,494.7 984.8,494.8 987.9,497.0 991.1,498.6 994.2,499.9 997.4,500.9 1000.5,502.6 1003.7,503.9 1006.9,504.6 1010.0,506.5 1013.2,507.9 1016.3,508.3 1019.5,510.4 1022.6,511.9 1025.8,512.0 1029.0,514.2 1032.1,515.8 1035.3,517.1 1038.4,518.1 1041.6,519.8 1044.7,521.1 1047.9,521.8 1051.1,523.7 1054.2,525.1 1057.4,525.6 1060.5,527.6" fill="none" stroke="#30638e" stroke-width="2"/>
<polyline points="88.2,117.1 91.3,119.9 94.5,122.1 97.6,126.3 100.8,141.8 103.9,145.9 107.1,150.7 110.3,151.2 113.4,152.7 116.6,168.5 119.7,172.0 122.9,174.1 126.0,174.2 129.2,184.1 132.4,187.4 135.5,189.4 138.7,194.6 141.8,199.3 145.0,205.2 148.1,207.5 151.3,215.3 154.5,218.1 157.6,219.3 160.8,224.8 163.9,225.7 167.1,234.4 170.2,236.7 173.4,236.7 176.6,243.8 179.7,246.5 182.9,247.4 186.0,253.1 189.2,256.0 192.3,257.6 195.5,262.3 198.7,264.0 201.8,271.8 205.0,274.2 208.1,274.6 211.3,281.1 214.4,283.8 217.6,284.9 220.8,290.3 223.9,290.6 227.1,299.6 230.2,301.7 233.4,305.7 236.5,308.6 239.7,315.3 242.9,317.9 246.0,318.9 249.2,324.5 252.3,327.4 255.5,328.9 258.6,333.6 261.8,335.2 265.0,343.1 268.1,345.4 271.3,345.7 274.4,352.3 277.6,355.0 280.7,355.9 283.9,361.5 287.1,364.4 290.2,366.0 293.4,370.7 296.5,372.2 299.7,380.1 302.8,382.5 306.0,382.7 309.2,389.4 312.3,392.0 315.5,393.0 318.6,398.6 321.8,401.5 324.9,403.0 328.1,407.8 331.3,409.3 334.4,417.2 337.6,419.5 340.7,419.8 343.9,426.5 347.0,429.1 350.2,430.1 353.3,435.7 356.5,438.5 359.7,440.1 362.8,444.8 366.0,446.4 369.1,454.3 372.3,456.6 375.4,456.9 378.6,463.5 381.8,466.2 384.9,467.1 388.1,472.7 391.2,475.6 394.4,477.1 397.5,481.9 400.7,483.4 403.9,491.3 407.0,493.6 410.2,493.9 413.3,500.6 416.5,503.2 419.6,504.2 422.8,509.8 426.0,512.7 429.1,514.2 432.3,518.9 435.4,520.5 438.6,528.4" fill="none" stroke="#8a5a44" stroke-width="2"/>
<polyline points="88.2,138.5 91.3,156.0 94.5,156.1 97.6,169.2 100.8,174.1 103.9,177.0 107.1,178.2 110.3,185.5 113.4,187.7 116.6,196.3 119.7,199.2 122.9,200.7 126.0,206.2 129.2,208.8 132.4,216.4 135.5,219.2 138.7,220.5 141.8,225.8 145.0,226.9 148.1,235.4 151.3,237.7 154.5,237.9 157.6,244.8 160.8,247.5 163.9,248.5 167.1,254.1 170.2,254.3 173.4,263.5 176.6,265.5 179.7,269.6 182.9,272.4 186.0,279.1 189.2,281.8 192.3,282.7 195.5,288.3 198.7,288.4 201.8,297.7 205.0,299.6 208.1,303.8 211.3,306.4 214.4,313.3 217.6,315.9 220.8,316.7 223.9,322.5 227.1,325.4 230.2,326.8 233.4,331.7 236.5,333.0 239.7,341.1 242.9,343.4 246.0,343.5 249.2,350.4 252.3,353.0 255.5,353.8 258.6,359.6 261.8,362.4 265.0,363.9 268.1,368.8 271.3,370.1 274.4,378.2 277.6,380.4 280.7,380.6 283.9,387.4 287.1,390.0 290.2,390.9 293.4,396.6 296.5,399.5 299.7,400.9 302.8,405.8 306.0,407.1 309.2,415.2 312.3,417.5 315.5,417.7 318.6,424.5 321.8,427.1 324.9,427.9 328.1,433.7 331.3,436.6 334.4,438.0 337.6,442.9 340.7,444.2 343.9,452.3 347.0,454.6 350.2,454.7 353.3,461.6 356.5,464.2 359.7,465.0 362.8,470.8 366.0,473.6 369.1,475.1 372.3,479.9 375.4,481.2 378.6,489.4 381.8,491.6 384.9,491.8 388.1,498.6 391.2,501.2 394.4,502.1 397.5,507.8 400.7,510.7 403.9,512.1 407.0,517.0 410.2,518.3 413.3,526.4" fill="none" stroke="#7a9d54" stroke-width="2"/>
<polyline points="88.2,99.3 91.3,125.8 94.5,128.0 97.6,129.2 100.8,157.0 103.9,163.8 107.1,167.4 110.3,169.4 113.4,169.5 116.6,180.3 119.7,183.7 122.9,185.8 126.0,191.0 129.2,191.2 132.4,213.6 135.5,219.5 138.7,219.9 141.8,229.1 145.0,231.3 148.1,235.3 151.3,238.6 154.5,245.0 157.6,247.8 160.8,249.0 163.9,254.2 167.1,255.2 170.2,263.7 173.4,265.9 176.6,265.9 179.7,273.0 182.9,275.5 186.0,276.3 189.2,282.2 192.3,285.0 195.5,286.5 198.7,291.4 201.8,292.6 205.0,300.8 208.1,303.1 211.3,303.2 214.4,310.1 217.6,312.7 220.8,313.5 223.9,319.3 227.1,322.1 230.2,323.6 233.4,328.5 236.5,329.7 239.7,337.9 242.9,340.1 246.0,340.3 249.2,347.2 252.3,349.7 255.5,350.6 258.6,356.4 261.8,359.2 265.0,360.6 268.1,365.5 271.3,366.8 274.4,375.0 277.6,377.2 280.7,377.3 283.9,384.2 287.1,386.8 290.2,387.6 293.4,393.4 296.5,396.3 299.7,397.7 302.8,402.6 306.0,403.8 309.2,412.0 312.3,414.3 315.5,414.4 318.6,421.3 321.8,423.9 324.9,424.7 328.1,430.5 331.3,433.3 334.4,434.8 337.6,439.7 340.7,440.9 343.9,449.1 347.0,451.3 350.2,451.4 353.3,458.3 356.5,460.9 359.7,461.7 362.8,467.5 366.0,470.4 369.1,471.8 372.3,476.7 375.4,478.0 378.6,486.1 381.8,488.4 384.9,488.5 388.1,495.4 391.2,498.0 394.4,498.8 397.5,504.6 400.7,507.4 403.9,508.9 407.0,513.8 410.2,515.0 413.3,523.2 416.5,525.4 419.6,525.6 422.8,532.4" fill="none" stroke="#9b5de5" stroke-width="2"/>
<polyline points="88.2,97.0 91.3,120.2 94.5,139.1 97.6,145.3 100.8,145.8 103.9,147.7 107.1,147.9 110.3,148.1 113.4,148.2 116.6,148.4 119.7,148.6 122.9,148.9 126.0,149.1 129.2,149.4 132.4,149.7 135.5,150.0 138.7,150.4 141.8,150.8 145.0,150.9 148.1,151.5 151.3,152.2 154.5,152.8 157.6,153.5 160.8,153.7 163.9,154.9 167.1,155.8 170.2,156.7 173.4,157.5 176.6,158.9 179.7,159.2 182.9,161.4 186.0,162.8 189.2,164.0 192.3,165.9 195.5,166.9 198.7,169.3 201.8,170.4 205.0,173.2 208.1,174.6 211.3,177.4 214.4,179.3 217.6,181.9 220.8,182.3 223.9,189.2 227.1,190.0 230.2,194.8 233.4,196.9 236.5,197.0 239.7,203.1 242.9,205.3 246.0,205.5 249.2,211.7 252.3,214.0 255.5,214.2 258.6,220.6 261.8,223.0 265.0,223.6 268.1,229.5 271.3,232.2 274.4,233.2 277.6,238.6 280.7,238.6 283.9,247.8 287.1,249.6 290.2,253.8 293.4,256.2 296.5,263.3 299.7,265.8 302.8,266.5 306.0,272.5 309.2,275.3 312.3,276.5 315.5,281.6 318.6,282.4 321.8,291.0 324.9,293.1 328.1,297.0 331.3,300.2 334.4,306.6 337.6,309.3 340.7,310.4 343.9,315.8 347.0,316.1 350.2,325.1 353.3,327.1 356.5,331.2 359.7,334.0 362.8,340.7 366.0,343.4 369.1,344.3 372.3,349.9 375.4,352.8 378.6,354.3 381.8,359.1 384.9,360.6 388.1,368.5 391.2,370.8 394.4,371.1 397.5,377.8 400.7,380.4 403.9,381.4 407.0,387.0 410.2,389.9 413.3,391.4 416.5,396.1 419.6,397.7 422.8,405.6 426.0,407.9 429.1,408.2 432.3,414.8 435.4,417.5 438.6,418.4 441.7,424.0 444.9,426.9 448.1,428.5 451.2,433.2 454.4,434.7 457.5,442.7 460.7,445.0 463.8,445.2 467.0,451.9 470.2,454.5 473.3,455.5 476.5,461.1 479.6,464.0 482.8,465.5 485.9,470.3 489.1,471.8 492.3,479.7 495.4,482.0 498.6,482.3 501.7,489.0 504.9,491.6 508.0,492.5 511.2,498.2 514.4,501.0 517.5,502.6 520.7,507.3 523.8,508.8 527.0,516.8 530.1,519.1 533.3,519.3 536.5,526.0" fill="none" stroke="#f15bb5" stroke-width="2"/>
<polyline points="88.2,111.9 91.3,120.6 94.5,131.8 97.6,151.5 100.8,151.7 103.9,172.0 107.1,172.8 110.3,181.6 113.4,182.7 116.6,192.4 119.7,195.3 122.9,196.6 126.0,202.6 129.2,205.0 132.4,212.8 135.5,215.7 138.7,217.0 141.8,222.4 145.0,223.5 148.1,232.0 151.3,234.3 154.5,234.6 157.6,241.4 160.8,244.1 163.9,245.2 167.1,250.7 170.2,251.1 173.4,260.1 176.6,262.2 179.7,266.2 182.9,269.2 186.0,275.7 189.2,278.4 192.3,279.5 195.5,285.0 198.7,285.2 201.8,294.3 205.0,296.3 208.1,300.4 211.3,303.2 214.4,309.9 217.6,312.6 220.8,313.5 223.9,319.1 227.1,322.0 230.2,323.6 233.4,328.3 236.5,329.8 239.7,337.8 242.9,340.1 246.0,340.3 249.2,347.0 252.3,349.6 255.5,350.6 258.6,356.2 261.8,359.1 265.0,360.6 268.1,365.4 271.3,366.9 274.4,374.8 277.6,377.1 280.7,377.4 283.9,384.1 287.1,386.7 290.2,387.7 293.4,393.3 296.5,396.2 299.7,397.7 302.8,402.4 306.0,404.0 309.2,411.9 312.3,414.2 315.5,414.5 318.6,421.1 321.8,423.8 324.9,424.7 328.1,430.3 331.3,433.2 334.4,434.8 337.6,439.5 340.7,441.0 343.9,448.9 347.0,451.3 350.2,451.5 353.3,458.2 356.5,460.8 359.7,461.8 362.8,467.4 366.0,470.3 369.1,471.8 372.3,476.6 375.4,478.1 378.6,486.0 381.8,488.3 384.9,488.6 388.1,495.2 391.2,497.9 394.4,498.8 397.5,504.4 400.7,507.3 403.9,508.9 407.0,513.6 410.2,515.2 413.3,523.1 416.5,525.4 419.6,525.7 422.8,532.3" fill="none" stroke="#00bbf9" stroke-width="2"/>
<polyline points="88.2,105.1 91.3,132.6 94.5,135.1 97.6,151.5 100.8,191.3 103.9,192.3 107.1,199.1 110.3,201.1 113.4,209.4 116.6,212.2 119.7,213.5 122.9,219.0 126.0,220.1 129.2,228.7 132.4,231.0 135.5,231.3 138.7,238.1 141.8,240.8 145.0,242.0 148.1,247.4 151.3,247.9 154.5,256.8 157.6,258.9 160.8,262.9 163.9,266.0 167.1,272.5 170.2,275.2 173.4,276.3 176.6,281.7 179.7,282.1 182.9,291.1 186.0,293.1 189.2,297.1 192.3,300.1 195.5,306.7 198.7,309.3 201.8,310.3 205.0,315.9 208.1,316.0 211.3,325.2 214.4,327.1 217.6,331.3 220.8,334.0 223.9,340.8 227.1,343.4 230.2,344.3 233.4,350.0 236.5,352.9 239.7,354.3 242.9,359.2 246.0,360.5 249.2,368.6 252.3,370.9 255.5,371.0 258.6,377.9 261.8,380.5 265.0,381.3 268.1,387.1 271.3,389.9 274.4,391.4 277.6,396.3 280.7,397.6 283.9,405.7 287.1,407.9 290.2,408.1 293.4,414.9 296.5,417.5 299.7,418.4 302.8,424.2 306.0,427.0 309.2,428.5 312.3,433.3 315.5,434.6 318.6,442.8 321.8,445.0 324.9,445.2 328.1,452.0 331.3,454.6 334.4,455.5 337.6,461.2 340.7,464.1 343.9,465.5 347.0,470.4 350.2,471.7 353.3,479.8 356.5,482.1 359.7,482.2 362.8,489.1 366.0,491.7 369.1,492.5 372.3,498.3 375.4,501.1 378.6,502.6 381.8,507.4 384.9,508.8 388.1,516.9 391.2,519.1 394.4,519.3 397.5,526.1" fill="none" stroke="#fee440" stroke-width="2"/>
<polyline points="88.2,110.8 91.3,132.0 94.5,143.2 97.6,148.3 100.8,152.9 103.9,154.5 107.1,155.9 110.3,169.5 113.4,173.3 116.6,176.2 119.7,177.2 122.9,184.9 126.0,186.7 129.2,195.7 132.4,198.6 135.5,199.9 138.7,205.7 141.8,208.0 145.0,215.8 148.1,218.6 151.3,219.8 154.5,225.3 157.6,226.2 160.8,234.9 163.9,237.1 167.1,237.2 170.2,244.3 173.4,246.9 176.6,247.9 179.7,253.5 182.9,253.6 186.0,262.9 189.2,264.9 192.3,269.0 195.5,271.7 198.7,278.6 201.8,281.2 205.0,282.1 208.1,287.8 211.3,290.7 214.4,292.2 217.6,297.0 220.8,298.4 223.9,306.4 227.1,308.7 230.2,308.9 233.4,315.7 236.5,318.3 239.7,319.2 242.9,324.9 246.0,327.8 249.2,329.3 252.3,334.0 255.5,335.5 258.6,343.5 261.8,345.8 265.0,346.0 268.1,352.7 271.3,355.4 274.4,356.3 277.6,361.9 280.7,364.8 283.9,366.3 287.1,371.1 290.2,372.6 293.4,380.6 296.5,382.9 299.7,383.1 302.8,389.8 306.0,392.4 309.2,393.4 312.3,399.0 315.5,401.9 318.6,403.4 321.8,408.2 324.9,409.7 328.1,417.6 331.3,419.9 334.4,420.2 337.6,426.9 340.7,429.5 343.9,430.4 347.0,436.1 350.2,438.9 353.3,440.5 356.5,445.2 359.7,446.7 362.8,454.7 366.0,457.0 369.1,457.2 372.3,463.9 375.4,466.5 378.6,467.5 381.8,473.1 384.9,476.0 388.1,477.5 391.2,482.3 394.4,483.8 397.5,491.7 400.7,494.0 403.9,494.3 407.0,501.0 410.2,503.6 413.3,504.5 416.5,510.2 419.6,513.1 422.8,514.6 426.0,519.3 429.1,520.8 432.3,528.8" fill="none" stroke="#264653" stroke-width="2"/>
<line x1="85" y1="595" x2="110" y2="595" stroke="#d1495b" stroke-width="4"/>
<text x="117" y="599" font-family="Arial" font-size="12" fill="#17202a">(0.50, 0.50, 0.50)</text>
<line x1="425" y1="595" x2="450" y2="595" stroke="#00798c" stroke-width="4"/>
<text x="457" y="599" font-family="Arial" font-size="12" fill="#17202a">(-0.07, 0.59, 0.91)</text>
<line x1="765" y1="595" x2="790" y2="595" stroke="#edae49" stroke-width="4"/>
<text x="797" y="599" font-family="Arial" font-size="12" fill="#17202a">(-0.21, -0.07, 0.35)</text>
<line x1="85" y1="615" x2="110" y2="615" stroke="#30638e" stroke-width="4"/>
<text x="117" y="619" font-family="Arial" font-size="12" fill="#17202a">(-0.97, -0.32, -0.53)</text>
<line x1="425" y1="615" x2="450" y2="615" stroke="#8a5a44" stroke-width="4"/>
<text x="457" y="619" font-family="Arial" font-size="12" fill="#17202a">(-0.97, 0.92, 0.40)</text>
<line x1="765" y1="615" x2="790" y2="615" stroke="#7a9d54" stroke-width="4"/>
<text x="797" y="619" font-family="Arial" font-size="12" fill="#17202a">(0.54, 0.02, 0.32)</text>
<line x1="85" y1="635" x2="110" y2="635" stroke="#9b5de5" stroke-width="4"/>
<text x="117" y="639" font-family="Arial" font-size="12" fill="#17202a">(0.76, -0.88, 1.00)</text>
<line x1="425" y1="635" x2="450" y2="635" stroke="#f15bb5" stroke-width="4"/>
<text x="457" y="639" font-family="Arial" font-size="12" fill="#17202a">(-0.51, -0.43, -0.66)</text>
<line x1="765" y1="635" x2="790" y2="635" stroke="#00bbf9" stroke-width="4"/>
<text x="797" y="639" font-family="Arial" font-size="12" fill="#17202a">(-0.54, -0.14, 0.86)</text>
<line x1="85" y1="655" x2="110" y2="655" stroke="#fee440" stroke-width="4"/>
<text x="117" y="659" font-family="Arial" font-size="12" fill="#17202a">(-0.03, 0.96, -0.97)</text>
<line x1="425" y1="655" x2="450" y2="655" stroke="#264653" stroke-width="4"/>
<text x="457" y="659" font-family="Arial" font-size="12" fill="#17202a">(0.43, -0.45, -0.07)</text>
<text x="85.0" y="568" text-anchor="middle" font-family="Arial" font-size="12" fill="#52616b">0</text>
<text x="280.7" y="568" text-anchor="middle" font-family="Arial" font-size="12" fill="#52616b">62</text>
<text x="479.6" y="568" text-anchor="middle" font-family="Arial" font-size="12" fill="#52616b">125</text>
<text x="675.4" y="568" text-anchor="middle" font-family="Arial" font-size="12" fill="#52616b">187</text>
<text x="874.3" y="568" text-anchor="middle" font-family="Arial" font-size="12" fill="#52616b">250</text>
<text x="1070.0" y="568" text-anchor="middle" font-family="Arial" font-size="12" fill="#52616b">312</text>
<text x="577.5" y="584" text-anchor="middle" font-family="Arial" font-size="14" fill="#17202a">iteracao</text>
<text x="20" y="310" transform="rotate(-90 20,310)" text-anchor="middle" font-family="Arial" font-size="14" fill="#17202a">G(x,y,z) (log10)</text>
</svg>
