<svg xmlns="http://www.w3.org/2000/svg" width="1100" height="730" viewBox="0 0 1100 730">
<rect width="100%" height="100%" fill="#f7f4ed"/>
<text x="85" y="32" font-family="Arial" font-size="22" font-weight="bold" fill="#17202a">Convergencia do Metodo de Newton por chute inicial</text>
<text x="85" y="52" font-family="Arial" font-size="13" fill="#52616b">G(x,y,z) (escala log10) por iteracao - residuos_iteracoes.txt</text>
<line x1="85.0" y1="550.0" x2="1070.0" y2="550.0" stroke="#d8d2c4" stroke-width="1"/>
<text x="77" y="554.0" text-anchor="end" font-family="Arial" font-size="12" fill="#52616b">1e-32</text>
<line x1="85.0" y1="535.9" x2="1070.0" y2="535.9" stroke="#d8d2c4" stroke-width="1"/>
<text x="77" y="539.9" text-anchor="end" font-family="Arial" font-size="12" fill="#52616b">1e-31</text>
<line x1="85.0" y1="521.8" x2="1070.0" y2="521.8" stroke="#d8d2c4" stroke-width="1"/>
<text x="77" y="525.8" text-anchor="end" font-family="Arial" font-size="12" fill="#52616b">1e-30</text>
<line x1="85.0" y1="507.6" x2="1070.0" y2="507.6" stroke="#d8d2c4" stroke-width="1"/>
<text x="77" y="511.6" text-anchor="end" font-family="Arial" font-size="12" fill="#52616b">1e-29</text>
<line x1="85.0" y1="493.5" x2="1070.0" y2="493.5" stroke="#d8d2c4" stroke-width="1"/>
<text x="77" y="497.5" text-anchor="end" font-family="Arial" font-size="12" fill="#52616b">1e-28</text>
<line x1="85.0" y1="479.4" x2="1070.0" y2="479.4" stroke="#d8d2c4" stroke-width="1"/>
<text x="77" y="483.4" text-anchor="end" font-family="Arial" font-size="12" fill="#52616b">1e-27</text>
<line x1="85.0" y1="465.3" x2="1070.0" y2="465.3" stroke="#d8d2c4" stroke-width="1"/>
<text x="77" y="469.3" text-anchor="end" font-family="Arial" font-size="12" fill="#52616b">1e-26</text>
<line x1="85.0" y1="451.2" x2="1070.0" y2="451.2" stroke="#d8d2c4" stroke-width="1"/>
<text x="77" y="455.2" text-anchor="end" font-family="Arial" font-size="12" fill="#52616b">1e-25</text>
<line x1="85.0" y1="437.1" x2="1070.0" y2="437.1" stroke="#d8d2c4" stroke-width="1"/>
<text x="77" y="441.1" text-anchor="end" font-family="Arial" font-size="12" fill="#52616b">1e-24</text>
<line x1="85.0" y1="422.9" x2="1070.0" y2="422.9" stroke="#d8d2c4" stroke-width="1"/>
<text x="77" y="426.9" text-anchor="end" font-family="Arial" font-size="12" fill="#52616b">1e-23</text>
<line x1="85.0" y1="408.8" x2="1070.0" y2="408.8" stroke="#d8d2c4" stroke-width="1"/>
<text x="77" y="412.8" text-anchor="end" font-family="Arial" font-size="12" fill="#52616b">1e-22</text>
<line x1="85.0" y1="394.7" x2="1070.0" y2="394.7" stroke="#d8d2c4" stroke-width="1"/>
<text x="77" y="398.7" text-anchor="end" font-family="Arial" font-size="12" fill="#52616b">1e-21</text>
<line x1="85.0" y1="380.6" x2="1070.0" y2="380.6" stroke="#d8d2c4" stroke-width="1"/>
<text x="77" y="384.6" text-anchor="end" font-family="Arial" font-size="12" fill="#52616b">1e-20</text>
<line x1="85.0" y1="366.5" x2="1070.0" y2="366.5" stroke="#d8d2c4" stroke-width="1"/>
<text x="77" y="370.5" text-anchor="end" font-family="Arial" font-size="12" fill="#52616b">1e-19</text>
<line x1="85.0" y1="352.4" x2="1070.0" y2="352.4" stroke="#d8d2c4" stroke-width="1"/>
<text x="77" y="356.4" text-anchor="end" font-family="Arial" font-size="12" fill="#52616b">1e-18</text>
<line x1="85.0" y1="338.2" x2="1070.0" y2="338.2" stroke="#d8d2c4" stroke-width="1"/>
<text x="77" y="342.2" text-anchor="end" font-family="Arial" font-size="12" fill="#52616b">1e-17</text>
<line x1="85.0" y1="324.1" x2="1070.0" y2="324.1" stroke="#d8d2c4" stroke-width="1"/>
<text x="77" y="328.1" text-anchor="end" font-family="Arial" font-size="12" fill="#52616b">1e-16</text>
<line x1="85.0" y1="310.0" x2="1070.0" y2="310.0" stroke="#d8d2c4" stroke-width="1"/>
<text x="77" y="314.0" text-anchor="end" font-family="Arial" font-size="12" fill="#52616b">1e-15</text>
<line x1="85.0" y1="295.9" x2="1070.0" y2="295.9" stroke="#d8d2c4" stroke-width="1"/>
<text x="77" y="299.9" text-anchor="end" font-family="Arial" font-size="12" fill="#52616b">1e-14</text>
<line x1="85.0" y1="281.8" x2="1070.0" y2="281.8" stroke="#d8d2c4" stroke-width="1"/>
<text x="77" y="285.8" text-anchor="end" font-family="Arial" font-size="12" fill="#52616b">1e-13</text>
<line x1="85.0" y1="267.6" x2="1070.0" y2="267.6" stroke="#d8d2c4" stroke-width="1"/>
<text x="77" y="271.6" text-anchor="end" font-family="Arial" font-size="12" fill="#52616b">1e-12</text>
<line x1="85.0" y1="253.5" x2="1070.0" y2="253.5" stroke="#d8d2c4" stroke-width="1"/>
<text x="77" y="257.5" text-anchor="end" font-family="Arial" font-size="12" fill="#52616b">1e-11</text>
<line x1="85.0" y1="239.4" x2="1070.0" y2="239.4" stroke="#d8d2c4" stroke-width="1"/>
<text x="77" y="243.4" text-anchor="end" font-family="Arial" font-size="12" fill="#52616b">1e-10</text>
<line x1="85.0" y1="225.3" x2="1070.0" y2="225.3" stroke="#d8d2c4" stroke-width="1"/>
<text x="77" y="229.3" text-anchor="end" font-family="Arial" font-size="12" fill="#52616b">1e-9</text>
<line x1="85.0" y1="211.2" x2="1070.0" y2="211.2" stroke="#d8d2c4" stroke-width="1"/>
<text x="77" y="215.2" text-anchor="end" font-family="Arial" font-size="12" fill="#52616b">1e-8</text>
<line x1="85.0" y1="197.1" x2="1070.0" y2="197.1" stroke="#d8d2c4" stroke-width="1"/>
<text x="77" y="201.1" text-anchor="end" font-family="Arial" font-size="12" fill="#52616b">1e-7</text>
<line x1="85.0" y1="182.9" x2="1070.0" y2="182.9" stroke="#d8d2c4" stroke-width="1"/>
<text x="77" y="186.9" text-anchor="end" font-family="Arial" font-size="12" fill="#52616b">1e-6</text>
<line x1="85.0" y1="168.8" x2="1070.0" y2="168.8" stroke="#d8d2c4" stroke-width="1"/>
<text x="77" y="172.8" text-anchor="end" font-family="Arial" font-size="12" fill="#52616b">1e-5</text>
<line x1="85.0" y1="154.7" x2="1070.0" y2="154.7" stroke="#d8d2c4" stroke-width="1"/>
<text x="77" y="158.7" text-anchor="end" font-family="Arial" font-size="12" fill="#52616b">1e-4</text>
<line x1="85.0" y1="140.6" x2="1070.0" y2="140.6" stroke="#d8d2c4" stroke-width="1"/>
<text x="77" y="144.6" text-anchor="end" font-family="Arial" font-size="12" fill="#52616b">1e-3</text>
<line x1="85.0" y1="126.5" x2="1070.0" y2="126.5" stroke="#d8d2c4" stroke-width="1"/>
<text x="77" y="130.5" text-anchor="end" font-family="Arial" font-size="12" fill="#52616b">1e-2</text>
<line x1="85.0" y1="112.4" x2="1070.0" y2="112.4" stroke="#d8d2c4" stroke-width="1"/>
<text x="77" y="116.4" text-anchor="end" font-family="Arial" font-size="12" fill="#52616b">1e-1</text>
<line x1="85.0" y1="98.2" x2="1070.0" y2="98.2" stroke="#d8d2c4" stroke-width="1"/>
<text x="77" y="102.2" text-anchor="end" font-family="Arial" font-size="12" fill="#52616b">1e0</text>
<line x1="85.0" y1="84.1" x2="1070.0" y2="84.1" stroke="#d8d2c4" stroke-width="1"/>
<text x="77" y="88.1" text-anchor="end" font-family="Arial" font-size="12" fill="#52616b">1e1</text>
<line x1="85.0" y1="70.0" x2="1070.0" y2="70.0" stroke="#d8d2c4" stroke-width="1"/>
<text x="77" y="74.0" text-anchor="end" font-family="Arial" font-size="12" fill="#52616b">1e2</text>
<line x1="85" y1="550" x2="1070" y2="550" stroke="#17202a" stroke-width="2"/>
<line x1="85" y1="70" x2="85" y2="550" stroke="#17202a" stroke-width="2"/>
<polyline points="85.0,93.4 208.1,119.5 331.3,165.7 454.4,252.5 577.5,429.5" fill="none" stroke="#d1495b" stroke-width="2"/>
<polyline points="85.0,74.4 208.1,91.4 331.3,109.3 454.4,148.4 577.5,216.9 700.6,359.3 823.8,540.2" fill="none" stroke="#00798c" stroke-width="2"/>
<polyline points="85.0,83.7 208.1,84.9 331.3,85.3 454.4,87.8 577.5,107.1 700.6,143.8 823.8,208.8 946.9,341.4 1070.0,540.2" fill="none" stroke="#edae49" stroke-width="2"/>
<polyline points="85.0,81.9 208.1,82.3 331.3,83.0 454.4,84.8 577.5,91.0 700.6,123.6 823.8,168.8 946.9,262.5 1070.0,446.6" fill="none" stroke="#30638e" stroke-width="2"/>
<polyline points="85.0,84.6 208.1,94.1 331.3,123.5 454.4,166.7 577.5,260.0 700.6,440.8" fill="none" stroke="#8a5a44" stroke-width="2"/>
<polyline points="85.0,85.5 208.1,109.7 331.3,142.6 454.4,208.6 577.5,340.5 700.6,540.2" fill="none" stroke="#7a9d54" stroke-width="2"/>
<polyline points="85.0,81.4 208.1,81.8 331.3,83.1 454.4,90.6 577.5,122.8 700.6,166.7 823.8,258.6 946.9,438.7" fill="none" stroke="#9b5de5" stroke-width="2"/>
<polyline points="85.0,71.3 208.1,74.0 331.3,90.8 454.4,107.4 577.5,145.5 700.6,210.8 823.8,347.4 946.9,530.4" fill="none" stroke="#f15bb5" stroke-width="2"/>
<polyline points="85.0,75.0 208.1,92.8 331.3,118.0 454.4,157.5 577.5,240.7 700.6,402.6" fill="none" stroke="#00bbf9" stroke-width="2"/>
<polyline points="85.0,74.2 208.1,83.1 331.3,106.4 454.4,135.0 577.5,197.3 700.6,315.1 823.8,540.2" fill="none" stroke="#fee440" stroke-width="2"/>
<polyline points="85.0,80.1 208.1,91.5 331.3,114.9 454.4,151.4 577.5,228.4 700.6,378.0 823.8,536.0" fill="none" stroke="#264653" stroke-width="2"/>
<line x1="85" y1="595" x2="110" y2="595" stroke="#d1495b" stroke-width="4"/>
<text x="117" y="599" font-family="Arial" font-size="12" fill="#17202a">(0.50, 0.50, 0.50)</text>
<line x1="425" y1="595" x2="450" y2="595" stroke="#00798c" stroke-width="4"/>
<text x="457" y="599" font-family="Arial" font-size="12" fill="#17202a">(0.20, -0.99, 0.12)</text>
<line x1="765" y1="595" x2="790" y2="595" stroke="#edae49" stroke-width="4"/>
<text x="797" y="599" font-family="Arial" font-size="12" fill="#17202a">(-0.95, 0.92, 0.39)</text>
<line x1="85" y1="615" x2="110" y2="615" stroke="#30638e" stroke-width="4"/>
<text x="117" y="619" font-family="Arial" font-size="12" fill="#17202a">(-0.89, 0.37, 0.26)</text>
<line x1="425" y1="615" x2="450" y2="615" stroke="#8a5a44" stroke-width="4"/>
<text x="457" y="619" font-family="Arial" font-size="12" fill="#17202a">(0.18, 0.09, 0.89)</text>
<line x1="765" y1="615" x2="790" y2="615" stroke="#7a9d54" stroke-width="4"/>
<text x="797" y="619" font-family="Arial" font-size="12" fill="#17202a">(0.61, -0.02, -0.09)</text>
<line x1="85" y1="635" x2="110" y2="635" stroke="#9b5de5" stroke-width="4"/>
<text x="117" y="639" font-family="Arial" font-size="12" fill="#17202a">(-0.72, 0.06, 0.18)</text>
<line x1="425" y1="635" x2="450" y2="635" stroke="#f15bb5" stroke-width="4"/>
<text x="457" y="639" font-family="Arial" font-size="12" fill="#17202a">(-0.34, -0.51, -0.76)</text>
<line x1="765" y1="635" x2="790" y2="635" stroke="#00bbf9" stroke-width="4"/>
<text x="797" y="639" font-family="Arial" font-size="12" fill="#17202a">(0.91, -0.57, 0.91)</text>
<line x1="85" y1="655" x2="110" y2="655" stroke="#fee440" stroke-width="4"/>
<text x="117" y="659" font-family="Arial" font-size="12" fill="#17202a">(-0.12, -0.96, 0.96)</text>
<line x1="425" y1="655" x2="450" y2="655" stroke="#264653" stroke-width="4"/>
<text x="457" y="659" font-family="Arial" font-size="12" fill="#17202a">(0.76, 0.12, -0.43)</text>
<text x="85.0" y="568" text-anchor="middle" font-family="Arial" font-size="12" fill="#52616b">0</text>
<text x="331.3" y="568" text-anchor="middle" font-family="Arial" font-size="12" fill="#52616b">2</text>
<text x="454.4" y="568" text-anchor="middle" font-family="Arial" font-size="12" fill="#52616b">3</text>
<text x="700.6" y="568" text-anchor="middle" font-family="Arial" font-size="12" fill="#52616b">5</text>
<text x="823.8" y="568" text-anchor="middle" font-family="Arial" font-size="12" fill="#52616b">6</text>
<text x="1070.0" y="568" text-anchor="middle" font-family="Arial" font-size="12" fill="#52616b">8</text>
<text x="577.5" y="584" text-anchor="middle" font-family="Arial" font-size="14" fill="#17202a">iteracao</text>
<text x="20" y="310" transform="rotate(-90 20,310)" text-anchor="middle" font-family="Arial" font-size="14" fill="#17202a">G(x,y,z) (log10)</text>
</svg>
